<?xml version="1.0" encoding="UTF-8" standalone="no"?>
<!-- Created with Inkscape (http://www.inkscape.org/) -->

<svg
   xmlns:dc="http://purl.org/dc/elements/1.1/"
   xmlns:cc="http://creativecommons.org/ns#"
   xmlns:rdf="http://www.w3.org/1999/02/22-rdf-syntax-ns#"
   xmlns:svg="http://www.w3.org/2000/svg"
   xmlns="http://www.w3.org/2000/svg"
   xmlns:sodipodi="http://sodipodi.sourceforge.net/DTD/sodipodi-0.dtd"
   xmlns:inkscape="http://www.inkscape.org/namespaces/inkscape"
   width="13"
   height="13"
   viewBox="0 0 3.4395833 3.4395834"
   version="1.1"
   id="svg5097"
   inkscape:version="0.92.1 r15371"
   sodipodi:docname="wbgym.svg">
  <defs
     id="defs5091" />
  <sodipodi:namedview
     id="base"
     pagecolor="#ffffff"
     bordercolor="#666666"
     borderopacity="1.0"
     inkscape:pageopacity="0.0"
     inkscape:pageshadow="2"
     inkscape:zoom="45.254834"
     inkscape:cx="5.3083483"
     inkscape:cy="4.8005107"
     inkscape:document-units="mm"
     inkscape:current-layer="layer1"
     showgrid="false"
     units="px"
     inkscape:window-width="1920"
     inkscape:window-height="1017"
     inkscape:window-x="1358"
     inkscape:window-y="-8"
     inkscape:window-maximized="1" />
  <metadata
     id="metadata5094">
    <rdf:RDF>
      <cc:Work
         rdf:about="">
        <dc:format>image/svg+xml</dc:format>
        <dc:type
           rdf:resource="http://purl.org/dc/dcmitype/StillImage" />
        <dc:title></dc:title>
      </cc:Work>
    </rdf:RDF>
  </metadata>
  <g
     inkscape:label="Ebene 1"
     inkscape:groupmode="layer"
     id="layer1"
     transform="translate(0,-293.5604)">
    <path
       style="opacity:1;fill:#91979c;fill-opacity:1;fill-rule:nonzero;stroke:none;stroke-width:0.25574118;stroke-linecap:round;stroke-linejoin:round;stroke-miterlimit:4;stroke-dasharray:none;stroke-opacity:1;paint-order:stroke markers fill"
       d="m 0.72159593,293.65913 a 0.71917412,0.61698564 0 0 0 -0.71917423,0.61699 0.71917412,0.61698564 0 0 0 0.71917423,0.61698 v 5.3e-4 H 2.7277135 v -0.23665 H 2.5126973 2.4059777 v -0.76014 h 0.1067196 0.2150162 v -0.23771 H 0.72685304 a 0.71917412,0.61698564 0 0 0 -0.005257,0 z m -0.0131428,0.23771 h 0.0131428 0.001577 0.56461477 0.8831966 v 0.76014 H 1.2872622 0.73894443 0.72159593 v 5.3e-4 a 0.44328323,0.38029653 0 0 1 -0.009463,-5.3e-4 0.44328323,0.38029653 0 0 1 -0.00368,0 0.44328323,0.38029653 0 0 1 -0.42845542,-0.3798 0.44328323,0.38029653 0 0 1 0.42845542,-0.37981 z"
       id="path5738"
       inkscape:connector-curvature="0" />
    <path
       id="path5789"
       d="m 0.72527791,295.65377 a 0.71917412,0.61698564 0 0 0 -0.71917423,0.61698 0.71917412,0.61698564 0 0 0 0.71917423,0.617 v 5.2e-4 H 2.7313956 v -0.23665 H 2.5163793 2.4096597 v -0.76014 h 0.1067196 0.2150163 v -0.23771 H 0.73053502 a 0.71917412,0.61698564 0 0 0 -0.005257,0 z m -0.0131428,0.23771 h 0.0131428 0.001577 0.56461469 0.8831965 v 0.76014 H 1.2909443 0.74262641 0.72527791 v 5.3e-4 a 0.44328323,0.38029653 0 0 1 -0.009463,-5.3e-4 0.44328323,0.38029653 0 0 1 -0.00368,0 0.44328323,0.38029653 0 0 1 -0.42845541,-0.3798 0.44328323,0.38029653 0 0 1 0.42845541,-0.37982 z"
       style="opacity:1;fill:#91979c;fill-opacity:1;fill-rule:nonzero;stroke:none;stroke-width:0.25574118;stroke-linecap:round;stroke-linejoin:round;stroke-miterlimit:4;stroke-dasharray:none;stroke-opacity:1;paint-order:stroke markers fill"
       inkscape:connector-curvature="0" />
    <path
       style="opacity:1;fill:#91979c;fill-opacity:1;fill-rule:nonzero;stroke:none;stroke-width:0.25574118;stroke-linecap:round;stroke-linejoin:round;stroke-miterlimit:4;stroke-dasharray:none;stroke-opacity:1;paint-order:stroke markers fill"
       d="m 2.7182527,295.89148 a 0.71917412,0.61698564 0 0 0 0.7191742,-0.61698 0.71917412,0.61698564 0 0 0 -0.7191742,-0.61699 v -5.3e-4 H 0.71213511 v 0.23665 H 0.92715138 1.033871 v 0.76015 H 0.92715138 0.71213511 v 0.2377 H 2.7129956 a 0.71917412,0.61698564 0 0 0 0.00526,0 z m 0.013143,-0.2377 H 2.7182527 2.7166758 2.152061 1.2688646 v -0.76015 h 0.8837218 0.5483178 0.017348 v -5.2e-4 a 0.44328323,0.38029653 0 0 1 0.00946,5.2e-4 0.44328323,0.38029653 0 0 1 0.00368,0 0.44328323,0.38029653 0 0 1 0.4284554,0.37981 0.44328323,0.38029653 0 0 1 -0.4284554,0.37981 z"
       id="path5791"
       inkscape:connector-curvature="0" />
  </g>
</svg>
